<svg xmlns="http://www.w3.org/2000/svg" enable-background="new 0 0 64 64" viewBox="0 0 64 64"><path fill="#29abe2" d="M43.51,55.94c-0.22-0.75-0.91-1.28-1.69-1.28c-0.17,0-0.33,0.02-0.49,0.07c-4.59,1.34-9.4,2.02-14.3,2.02
		c-7.51,0-15.42-1.59-23.51-4.74v-5.04c7.44,3.15,14.99,4.76,22.48,4.76c6.23,0,12.52-1.11,18.68-3.29c0.91-0.32,1.4-1.34,1.08-2.26
		c-0.25-0.71-0.91-1.18-1.66-1.18c-0.2,0-0.39,0.03-0.58,0.1c-5.78,2.04-11.67,3.08-17.51,3.08c-7.49,0-15.05-1.72-22.48-5.07V38.8
		c7.45,3.15,15,4.76,22.49,4.76c4.36,0,8.76-0.54,13.08-1.61c0.94-0.23,1.52-1.19,1.29-2.14c-0.2-0.79-0.9-1.35-1.71-1.35
		c-0.14,0-0.28,0.02-0.42,0.05c-4.04,1-8.15,1.51-12.23,1.51c-7.48,0-15.05-1.72-22.5-5.08v-4.31c7.43,3.15,14.97,4.75,22.45,4.75
		c7.48,0,15.01-1.61,22.45-4.75v3.58c0,0.98,0.79,1.77,1.76,1.77c0.97,0,1.76-0.8,1.76-1.77V9.89c0,0,0-0.01,0-0.01
		c0-6.3-13.46-9.17-25.97-9.17C13.5,0.71,0.09,3.56,0.01,9.82C0.01,9.84,0,9.85,0,9.87v43.34c0,0.73,0.43,1.37,1.1,1.64
		c8.9,3.61,17.62,5.43,25.93,5.43c5.23,0,10.37-0.73,15.28-2.17C43.24,57.86,43.78,56.87,43.51,55.94z M25.97,23.64
		c-7.48,0-15.02-1.72-22.45-5.06V14.8c4.82,2.89,13.86,4.24,22.45,4.24c8.59,0,17.62-1.35,22.45-4.24v3.78
		C40.99,21.93,33.44,23.64,25.97,23.64z M3.52,22.44c7.43,3.15,14.97,4.75,22.45,4.75c7.48,0,15.01-1.61,22.45-4.75v4.31
		c-7.42,3.35-14.97,5.06-22.45,5.06c-7.48,0-15.02-1.72-22.45-5.06V22.44z M48.41,9.87L48.41,9.87c-0.01,1.92-7.93,5.63-22.45,5.63
		c-14.52,0-22.45-3.72-22.45-5.63c0-1.91,7.92-5.63,22.45-5.63C40.48,4.25,48.41,7.96,48.41,9.87C48.41,9.87,48.41,9.87,48.41,9.87z
		"/><path fill="#29abe2" d="M62.24,43.96c0.97,0,1.76-0.79,1.76-1.77v-3.25c0-0.98-0.79-1.77-1.76-1.77h-18.7c-0.68,0-1.31,0.4-1.59,1.02
		c-0.29,0.62-0.19,1.36,0.24,1.88l8.41,10.15l-8.41,10.16c-0.44,0.52-0.53,1.26-0.24,1.88c0.29,0.62,0.91,1.02,1.59,1.02h18.7
		c0.97,0,1.76-0.79,1.76-1.77c0-0.98-0.79-1.77-1.76-1.77H47.29l6.95-8.39c0.54-0.66,0.54-1.61,0-2.27l-6.95-8.38h13.19v1.48
		C60.48,43.16,61.27,43.96,62.24,43.96z"/></svg>